<svg xmlns="http://www.w3.org/2000/svg" xmlns:xlink="http://www.w3.org/1999/xlink"
      width="256px" height="256px" viewBox="0 0 2560 2560">
  <rect x="0" y="0" width="100%" height="100%" fill="#d3d800"/>
  <g fill="#fff" stroke="none">
    <path d="M909 1556 l-35 -61 107 -105 c156 -154 244 -283 269 -396 20 -89 -13 -135 -158 -218 -107 -62 -156 -107 -188 -171 -24 -50 -26 -63 -22 -143 4 -68 10 -98 30 -137 98 -189 319 -222 471 -71 88 89 140 210 158 373 30 274 -68 513 -310 753 -79 78 -232 207 -276 232 -5 3 -26 -22 -46 -56z" id="apos"/>
    <use xlink:href="#apos" x="867" y="4"/>
  </g>
</svg>
